<?xml version="1.0" encoding="UTF-8"?>
<svg width="83px" height="34px" viewBox="0 0 83 34" version="1.1" xmlns="http://www.w3.org/2000/svg" xmlns:xlink="http://www.w3.org/1999/xlink">
    <!-- Generator: Sketch 39.1 (31720) - http://www.bohemiancoding.com/sketch -->
    <title>Group</title>
    <desc>Created with Sketch.</desc>
    <defs></defs>
    <g id="Page-1" stroke="none" stroke-width="1" fill="none" fill-rule="evenodd">
        <g id="Group">
            <path d="M20.448,30.479 L21.699,30.479 L21.226,29.179 L21.073,28.533 L21.067,28.533 L20.916,29.192 L20.448,30.479 L20.448,30.479 L20.448,30.479 Z M21.851,30.918 L20.284,30.918 L19.859,32.101 L19.354,32.101 L20.97,27.764 L21.202,27.764 L22.824,32.101 L22.287,32.101 L21.851,30.918 L21.851,30.918 L21.851,30.918 Z" id="Fill-511" fill="#1B4C4D"></path>
            <polyline id="Fill-512" fill="#1B4C4D" points="25.868 28.283 23.897 28.283 23.897 32.101 23.392 32.101 23.392 27.831 26.374 27.831 26.374 32.101 25.868 32.101 25.868 28.283"></polyline>
            <polyline id="Fill-513" fill="#1B4C4D" points="29.698 28.283 27.917 28.283 27.917 32.101 27.411 32.101 27.411 27.831 29.698 27.831 29.698 28.283"></polyline>
            <path d="M32.608,31.711 C32.738,31.711 32.864,31.696 32.986,31.665 C33.108,31.635 33.216,31.586 33.31,31.519 C33.403,31.452 33.478,31.369 33.532,31.272 C33.587,31.174 33.614,31.058 33.614,30.924 C33.614,30.757 33.581,30.623 33.514,30.521 C33.447,30.42 33.359,30.341 33.252,30.283 C33.144,30.227 33.023,30.188 32.889,30.168 C32.755,30.147 32.62,30.137 32.486,30.137 L31.955,30.137 L31.955,31.668 L32.077,31.686 L32.248,31.699 L32.438,31.708 L32.608,31.711 L32.608,31.711 L32.608,31.711 Z M32.272,29.71 C32.342,29.71 32.425,29.708 32.522,29.704 C32.62,29.7 32.702,29.694 32.767,29.686 C32.864,29.653 32.956,29.614 33.041,29.567 L33.27,29.402 L33.429,29.182 C33.467,29.099 33.486,29.009 33.486,28.911 C33.486,28.777 33.461,28.666 33.41,28.578 L33.206,28.368 C33.12,28.315 33.023,28.278 32.913,28.255 C32.804,28.233 32.691,28.222 32.578,28.222 C32.443,28.222 32.32,28.225 32.209,28.231 C32.097,28.237 32.013,28.246 31.955,28.259 L31.955,29.71 L32.272,29.71 L32.272,29.71 L32.272,29.71 Z M34.023,28.807 C34.023,28.909 34.007,29.013 33.975,29.118 C33.942,29.224 33.894,29.323 33.828,29.414 C33.763,29.506 33.68,29.586 33.578,29.655 C33.477,29.724 33.356,29.777 33.218,29.814 L33.218,29.838 C33.34,29.859 33.457,29.893 33.569,29.942 C33.681,29.991 33.779,30.058 33.865,30.143 C33.95,30.229 34.02,30.332 34.072,30.454 C34.125,30.576 34.151,30.721 34.151,30.887 C34.151,31.107 34.105,31.297 34.015,31.458 C33.923,31.618 33.803,31.75 33.654,31.851 C33.506,31.953 33.336,32.028 33.145,32.077 C32.954,32.126 32.759,32.15 32.56,32.15 L32.315,32.15 C32.222,32.15 32.124,32.147 32.022,32.141 C31.921,32.135 31.819,32.127 31.718,32.116 C31.616,32.106 31.526,32.091 31.449,32.071 L31.449,27.868 C31.6,27.844 31.774,27.823 31.974,27.807 C32.173,27.791 32.391,27.783 32.626,27.783 C32.785,27.783 32.946,27.796 33.111,27.822 C33.276,27.849 33.426,27.9 33.56,27.975 C33.694,28.05 33.805,28.155 33.893,28.289 C33.979,28.423 34.023,28.596 34.023,28.807 L34.023,28.807 L34.023,28.807 Z" id="Fill-514" fill="#1B4C4D"></path>
            <path d="M35.299,30.576 C35.299,30.731 35.313,30.879 35.344,31.022 C35.375,31.164 35.423,31.288 35.487,31.394 C35.553,31.5 35.638,31.585 35.744,31.65 C35.85,31.715 35.978,31.747 36.128,31.747 C36.681,31.752 36.958,31.361 36.958,30.576 C36.958,30.418 36.942,30.267 36.912,30.125 C36.881,29.983 36.833,29.859 36.769,29.753 C36.703,29.647 36.618,29.563 36.513,29.5 C36.406,29.437 36.278,29.405 36.128,29.405 C35.575,29.401 35.299,29.792 35.299,30.576 L35.299,30.576 L35.299,30.576 Z M34.792,30.576 C34.792,30.06 34.907,29.664 35.137,29.39 C35.366,29.116 35.697,28.978 36.128,28.978 C36.355,28.978 36.554,29.016 36.723,29.091 C36.892,29.166 37.031,29.274 37.141,29.414 C37.25,29.554 37.332,29.723 37.385,29.921 C37.438,30.118 37.464,30.336 37.464,30.576 C37.464,31.093 37.349,31.488 37.119,31.763 C36.89,32.037 36.559,32.175 36.128,32.175 C35.9,32.175 35.702,32.137 35.533,32.062 C35.364,31.987 35.226,31.879 35.115,31.739 C35.006,31.598 34.924,31.429 34.871,31.232 C34.818,31.035 34.792,30.816 34.792,30.576 L34.792,30.576 L34.792,30.576 Z" id="Fill-515" fill="#1B4C4D"></path>
            <path d="M40.313,31.9 C40.19,31.99 40.046,32.058 39.88,32.104 C39.713,32.151 39.538,32.175 39.354,32.175 C39.119,32.175 38.92,32.137 38.757,32.062 C38.595,31.987 38.461,31.879 38.357,31.739 C38.254,31.598 38.179,31.429 38.132,31.232 C38.085,31.035 38.062,30.816 38.062,30.576 C38.062,30.06 38.176,29.664 38.403,29.39 C38.631,29.116 38.958,28.978 39.386,28.978 C39.58,28.978 39.746,28.993 39.883,29.024 C40.019,29.054 40.142,29.098 40.252,29.155 L40.111,29.576 C40.018,29.523 39.914,29.481 39.8,29.451 C39.687,29.42 39.564,29.405 39.435,29.405 C38.856,29.405 38.568,29.796 38.568,30.576 C38.568,30.731 38.583,30.878 38.613,31.019 C38.645,31.159 38.695,31.283 38.767,31.391 C38.837,31.498 38.931,31.585 39.047,31.65 C39.163,31.715 39.306,31.747 39.477,31.747 C39.623,31.747 39.754,31.725 39.87,31.68 C39.986,31.635 40.081,31.585 40.154,31.528 L40.313,31.9" id="Fill-516" fill="#1B4C4D"></path>
            <polyline id="Fill-517" fill="#1B4C4D" points="42.826 29.478 41.875 29.478 41.875 32.101 41.387 32.101 41.387 29.478 40.436 29.478 40.436 29.052 42.826 29.052 42.826 29.478"></polyline>
            <path d="M43.546,30.576 C43.546,30.731 43.561,30.879 43.591,31.022 C43.622,31.164 43.67,31.288 43.734,31.394 C43.8,31.5 43.885,31.585 43.991,31.65 C44.097,31.715 44.225,31.747 44.375,31.747 C44.928,31.752 45.205,31.361 45.205,30.576 C45.205,30.418 45.189,30.267 45.159,30.125 C45.128,29.983 45.08,29.859 45.016,29.753 C44.95,29.647 44.865,29.563 44.76,29.5 C44.653,29.437 44.525,29.405 44.375,29.405 C43.822,29.401 43.546,29.792 43.546,30.576 L43.546,30.576 L43.546,30.576 Z M43.039,30.576 C43.039,30.06 43.154,29.664 43.384,29.39 C43.613,29.116 43.944,28.978 44.375,28.978 C44.603,28.978 44.801,29.016 44.97,29.091 C45.139,29.166 45.278,29.274 45.388,29.414 C45.497,29.554 45.579,29.723 45.632,29.921 C45.685,30.118 45.711,30.336 45.711,30.576 C45.711,31.093 45.596,31.488 45.366,31.763 C45.137,32.037 44.806,32.175 44.375,32.175 C44.147,32.175 43.949,32.137 43.78,32.062 C43.611,31.987 43.473,31.879 43.362,31.739 C43.253,31.598 43.171,31.429 43.118,31.232 C43.065,31.035 43.039,30.816 43.039,30.576 L43.039,30.576 L43.039,30.576 Z" id="Fill-518" fill="#1B4C4D"></path>
            <path d="M46.797,29.052 L46.797,29.881 C46.797,29.991 46.803,30.09 46.815,30.177 L46.888,30.403 L47.047,30.549 C47.116,30.583 47.207,30.601 47.321,30.601 C47.504,30.601 47.654,30.58 47.772,30.54 C47.891,30.499 47.98,30.454 48.041,30.406 L48.041,29.052 L48.529,29.052 L48.529,32.101 L48.041,32.101 L48.041,30.821 C47.976,30.861 47.88,30.906 47.751,30.954 C47.623,31.003 47.447,31.028 47.224,31.028 C47.073,31.028 46.941,31.012 46.827,30.979 C46.713,30.947 46.617,30.889 46.54,30.808 C46.463,30.727 46.405,30.619 46.366,30.485 C46.328,30.351 46.309,30.182 46.309,29.979 L46.309,29.052 L46.797,29.052" id="Fill-519" fill="#1B4C4D"></path>
            <polyline id="Fill-520" fill="#1B4C4D" points="51.335 30.753 49.957 30.753 49.957 32.101 49.469 32.101 49.469 29.052 49.957 29.052 49.957 30.326 51.335 30.326 51.335 29.052 51.823 29.052 51.823 32.101 51.335 32.101 51.335 30.753"></polyline>
            <path d="M53.58,31.723 C53.694,31.723 53.796,31.708 53.885,31.678 L54.117,31.561 L54.278,31.406 L54.373,31.241 L54.373,30.735 L54.199,30.726 L54.025,30.723 C53.899,30.723 53.776,30.73 53.656,30.744 C53.536,30.759 53.431,30.785 53.339,30.824 C53.248,30.862 53.175,30.915 53.119,30.982 C53.064,31.049 53.037,31.134 53.037,31.235 C53.037,31.378 53.088,31.494 53.189,31.586 C53.291,31.678 53.422,31.723 53.58,31.723 L53.58,31.723 L53.58,31.723 Z M52.714,29.277 C52.868,29.183 53.048,29.115 53.254,29.07 C53.459,29.025 53.674,29.003 53.897,29.003 C54.108,29.003 54.278,29.031 54.406,29.088 C54.535,29.145 54.632,29.219 54.699,29.311 C54.767,29.402 54.812,29.503 54.834,29.613 C54.855,29.722 54.867,29.832 54.867,29.942 C54.867,30.186 54.861,30.424 54.849,30.656 C54.837,30.887 54.831,31.107 54.831,31.314 C54.831,31.465 54.837,31.607 54.849,31.741 C54.861,31.876 54.884,32 54.916,32.114 L54.556,32.114 L54.428,31.686 L54.397,31.686 L54.26,31.854 L54.062,32.001 C53.984,32.043 53.896,32.079 53.794,32.107 C53.691,32.136 53.576,32.15 53.446,32.15 C53.315,32.15 53.194,32.13 53.083,32.089 C52.971,32.049 52.874,31.991 52.793,31.915 C52.712,31.84 52.647,31.75 52.601,31.644 C52.555,31.538 52.531,31.418 52.531,31.284 C52.531,31.105 52.567,30.956 52.641,30.836 C52.714,30.716 52.816,30.62 52.948,30.549 C53.081,30.478 53.239,30.427 53.425,30.396 C53.609,30.366 53.813,30.351 54.037,30.351 L54.205,30.351 L54.373,30.363 C54.386,30.241 54.392,30.131 54.392,30.033 C54.392,29.81 54.347,29.653 54.257,29.564 C54.168,29.474 54.005,29.429 53.77,29.429 L53.547,29.445 L53.303,29.489 L53.064,29.558 L52.866,29.649 L52.714,29.277 L52.714,29.277 L52.714,29.277 Z" id="Fill-521" fill="#1B4C4D"></path>
            <path d="M57.307,29.466 L57.13,29.42 L56.959,29.405 C56.699,29.405 56.501,29.452 56.364,29.546 C56.229,29.639 56.16,29.787 56.16,29.991 C56.16,30.174 56.232,30.315 56.377,30.415 C56.521,30.514 56.711,30.564 56.947,30.564 L57.014,30.564 L57.118,30.561 L57.307,30.552 L57.307,29.466 L57.307,29.466 L57.307,29.466 Z M57.307,30.839 L56.837,30.912 L56.032,32.101 L55.44,32.101 L56.172,31.058 L56.416,30.832 C56.205,30.8 56.025,30.715 55.877,30.576 C55.728,30.438 55.654,30.251 55.654,30.015 C55.654,29.832 55.686,29.676 55.748,29.546 C55.812,29.415 55.902,29.307 56.02,29.222 C56.138,29.137 56.278,29.075 56.44,29.036 C56.604,28.997 56.786,28.978 56.99,28.978 C57.141,28.978 57.28,28.989 57.411,29.009 C57.541,29.029 57.669,29.052 57.795,29.076 L57.795,32.101 L57.307,32.101 L57.307,30.839 L57.307,30.839 L57.307,30.839 Z" id="Fill-522" fill="#1B4C4D"></path>
            <polyline id="Fill-523" fill="#1B4C4D" points="60.363 27.831 62.688 27.831 62.688 28.283 60.869 28.283 60.869 29.679 62.535 29.679 62.535 30.131 60.869 30.131 60.869 31.65 62.718 31.65 62.718 32.101 60.363 32.101 60.363 27.831"></polyline>
            <path d="M64.072,31.693 L64.301,31.711 C64.376,31.715 64.465,31.717 64.566,31.717 C64.839,31.717 65.041,31.679 65.173,31.601 C65.305,31.524 65.371,31.392 65.371,31.205 C65.371,31.058 65.315,30.939 65.203,30.848 C65.092,30.756 64.894,30.711 64.608,30.711 L64.072,30.711 L64.072,31.693 L64.072,31.693 L64.072,31.693 Z M64.67,30.339 L64.883,30.302 L65.069,30.201 L65.203,30.052 L65.255,29.869 C65.255,29.706 65.207,29.594 65.109,29.53 C65.012,29.467 64.841,29.436 64.597,29.436 C64.467,29.436 64.363,29.438 64.288,29.442 L64.072,29.454 L64.072,30.339 L64.67,30.339 L64.67,30.339 L64.67,30.339 Z M63.584,29.057 C63.727,29.05 63.876,29.039 64.032,29.027 C64.188,29.015 64.383,29.009 64.615,29.009 C65.018,29.009 65.307,29.071 65.481,29.195 C65.656,29.319 65.743,29.507 65.743,29.759 C65.743,29.901 65.701,30.041 65.618,30.177 C65.535,30.313 65.397,30.414 65.207,30.479 L65.207,30.503 C65.446,30.548 65.615,30.631 65.713,30.753 C65.811,30.875 65.859,31.038 65.859,31.241 C65.859,31.558 65.745,31.788 65.518,31.93 C65.29,32.073 64.948,32.144 64.493,32.144 C64.322,32.144 64.163,32.139 64.017,32.129 C63.871,32.118 63.727,32.107 63.584,32.095 L63.584,29.057 L63.584,29.057 L63.584,29.057 Z" id="Fill-524" fill="#1B4C4D"></path>
            <path d="M67.86,29.405 C67.652,29.405 67.489,29.459 67.369,29.567 C67.249,29.675 67.165,29.838 67.116,30.058 L67.116,31.571 C67.189,31.628 67.272,31.671 67.366,31.702 C67.46,31.732 67.584,31.747 67.738,31.747 C68.019,31.747 68.241,31.643 68.406,31.433 C68.57,31.224 68.653,30.916 68.653,30.509 C68.653,30.343 68.639,30.191 68.61,30.055 C68.582,29.919 68.536,29.803 68.474,29.707 C68.41,29.612 68.329,29.537 68.229,29.485 C68.13,29.431 68.007,29.405 67.86,29.405 L67.86,29.405 L67.86,29.405 Z M66.628,29.052 L66.964,29.052 L67.055,29.417 L67.079,29.417 C67.173,29.275 67.294,29.166 67.442,29.091 C67.591,29.016 67.761,28.978 67.951,28.978 C68.358,28.978 68.661,29.098 68.86,29.338 C69.06,29.578 69.159,29.97 69.159,30.515 C69.159,30.772 69.126,31.002 69.059,31.208 C68.991,31.413 68.897,31.587 68.775,31.729 C68.653,31.872 68.506,31.981 68.333,32.059 C68.16,32.136 67.968,32.175 67.757,32.175 C67.605,32.175 67.487,32.165 67.399,32.147 C67.313,32.129 67.218,32.097 67.116,32.053 L67.116,33.322 L66.628,33.322 L66.628,29.052 L66.628,29.052 L66.628,29.052 Z" id="Fill-525" fill="#1B4C4D"></path>
            <path d="M70.264,30.576 C70.264,30.731 70.278,30.879 70.309,31.022 C70.34,31.164 70.388,31.288 70.452,31.394 C70.518,31.5 70.603,31.585 70.709,31.65 C70.814,31.715 70.942,31.747 71.093,31.747 C71.646,31.752 71.923,31.361 71.923,30.576 C71.923,30.418 71.907,30.267 71.877,30.125 C71.846,29.983 71.798,29.859 71.733,29.753 C71.668,29.647 71.583,29.563 71.478,29.5 C71.371,29.437 71.243,29.405 71.093,29.405 C70.54,29.401 70.264,29.792 70.264,30.576 L70.264,30.576 L70.264,30.576 Z M69.757,30.576 C69.757,30.06 69.872,29.664 70.102,29.39 C70.331,29.116 70.662,28.978 71.093,28.978 C71.32,28.978 71.519,29.016 71.688,29.091 C71.856,29.166 71.996,29.274 72.105,29.414 C72.215,29.554 72.297,29.723 72.35,29.921 C72.402,30.118 72.429,30.336 72.429,30.576 C72.429,31.093 72.313,31.488 72.084,31.763 C71.854,32.037 71.523,32.175 71.093,32.175 C70.865,32.175 70.667,32.137 70.498,32.062 C70.329,31.987 70.19,31.879 70.08,31.739 C69.971,31.598 69.889,31.429 69.836,31.232 C69.783,31.035 69.757,30.816 69.757,30.576 L69.757,30.576 L69.757,30.576 Z" id="Fill-526" fill="#1B4C4D"></path>
            <polyline id="Fill-527" fill="#1B4C4D" points="75.033 29.478 73.686 29.478 73.686 32.101 73.197 32.101 73.197 29.052 75.521 29.052 75.521 32.101 75.033 32.101 75.033 29.478"></polyline>
            <path d="M77.278,31.723 C77.393,31.723 77.494,31.708 77.583,31.678 L77.815,31.561 L77.977,31.406 L78.071,31.241 L78.071,30.735 L77.897,30.726 L77.724,30.723 C77.598,30.723 77.475,30.73 77.354,30.744 C77.234,30.759 77.129,30.785 77.037,30.824 C76.946,30.862 76.873,30.915 76.817,30.982 C76.763,31.049 76.735,31.134 76.735,31.235 C76.735,31.378 76.786,31.494 76.888,31.586 C76.989,31.678 77.12,31.723 77.278,31.723 L77.278,31.723 L77.278,31.723 Z M76.412,29.277 C76.566,29.183 76.746,29.115 76.952,29.07 C77.157,29.025 77.372,29.003 77.596,29.003 C77.807,29.003 77.977,29.031 78.104,29.088 C78.233,29.145 78.33,29.219 78.397,29.311 C78.465,29.402 78.51,29.503 78.532,29.613 C78.554,29.722 78.565,29.832 78.565,29.942 C78.565,30.186 78.56,30.424 78.547,30.656 C78.535,30.887 78.529,31.107 78.529,31.314 C78.529,31.465 78.535,31.607 78.547,31.741 C78.56,31.876 78.582,32 78.614,32.114 L78.254,32.114 L78.126,31.686 L78.096,31.686 L77.958,31.854 L77.76,32.001 C77.683,32.043 77.594,32.079 77.492,32.107 C77.39,32.136 77.274,32.15 77.145,32.15 C77.014,32.15 76.893,32.13 76.781,32.089 C76.669,32.049 76.572,31.991 76.491,31.915 C76.41,31.84 76.346,31.75 76.299,31.644 C76.253,31.538 76.229,31.418 76.229,31.284 C76.229,31.105 76.266,30.956 76.339,30.836 C76.412,30.716 76.515,30.62 76.646,30.549 C76.779,30.478 76.938,30.427 77.123,30.396 C77.308,30.366 77.512,30.351 77.735,30.351 L77.903,30.351 L78.071,30.363 C78.084,30.241 78.09,30.131 78.09,30.033 C78.09,29.81 78.045,29.653 77.955,29.564 C77.866,29.474 77.703,29.429 77.468,29.429 L77.245,29.445 L77.001,29.489 L76.763,29.558 L76.564,29.649 L76.412,29.277 L76.412,29.277 L76.412,29.277 Z" id="Fill-528" fill="#1B4C4D"></path>
            <polyline id="Fill-733" fill="#1B4C4D" points="26.361 0.2 12.189 24.579 40.315 24.579 26.361 0.2"></polyline>
            <path d="M65.514,9.849 C64.099,9.104 62.672,8.868 61.377,8.708 C60.081,8.55 58.918,8.467 56.646,8.882 C56.425,7.525 56.064,6.874 55.594,6.23 C55.123,5.585 54.541,4.949 52.574,3.867 C55.344,3.258 57.298,3.217 58.874,3.21 C60.451,3.203 61.651,3.231 62.838,3.346 C64.024,3.461 65.197,3.664 66.441,3.953 C67.687,4.242 69.002,4.616 70.877,5.33 C69.089,6.836 67.302,8.342 65.514,9.849" id="Fill-734" fill="#1B4C4D"></path>
            <path d="M28.436,2.401 C42.135,2.401 43.646,2.401 45.21,2.563 C46.773,2.726 48.39,3.05 49.728,3.473 C51.065,3.897 52.126,4.418 52.986,4.974 C53.846,5.53 54.507,6.12 54.984,6.919 C55.462,7.719 55.757,8.727 55.792,9.621 C55.826,10.517 55.601,11.298 55.176,12.064 C54.75,12.827 54.124,13.575 53.386,14.174 C52.646,14.774 51.796,15.225 50.623,15.668 C49.45,16.112 47.955,16.546 45.632,16.816 C43.308,17.084 40.153,17.19 38.335,17.194 L38.335,19.488 C35.035,13.792 31.735,8.096 28.436,2.401" id="Fill-735" fill="#1B4C4D"></path>
            <polygon id="Fill-736" fill="#DCF2F9" points="20.839 16.019 31.92 16.019 31.92 14.617 20.839 14.617"></polygon>
            <polygon id="Fill-737" fill="#DCF2F9" points="20.839 17.866 31.92 17.866 31.92 16.464 20.839 16.464"></polygon>
            <polygon id="Fill-738" fill="#DCF2F9" points="20.839 21.457 31.92 21.457 31.92 20.055 20.839 20.055"></polygon>
            <polyline id="Fill-739" fill="#DCF2F9" points="19.471 19.645 33.288 19.645 32.262 18.242 20.496 18.242 19.471 19.645"></polyline>
            <path d="M38.23,6.977 C41.742,6.573 44.107,8.169 44.149,9.729 C44.191,11.288 41.911,12.811 38.23,12.554 L38.23,6.977" id="Fill-740" fill="#DCF2F9"></path>
            <path d="M40.846,17.948 C41.923,19.363 43.316,20.432 44.52,21.185 C45.723,21.938 46.736,22.374 47.721,22.747 C48.706,23.12 49.664,23.43 50.789,23.648 C51.915,23.866 53.21,23.992 54.794,24.084 C56.377,24.176 58.249,24.232 59.847,24.197 C61.443,24.161 62.767,24.034 64.305,23.876 C65.842,23.718 67.595,23.529 71.425,22.526 L71.425,12.027 L57.433,12.027 C56.855,13.392 56.278,14.757 55.701,16.122 L60.895,16.122 L60.895,18.786 C58.805,18.786 57.889,18.856 57.024,18.779 C56.159,18.701 55.348,18.481 54.484,18.19 C53.621,17.899 52.706,17.538 51.376,16.181 C48.946,17.118 47.398,17.511 45.76,17.702 C44.122,17.893 42.395,17.882 40.846,17.948" id="Fill-741" fill="#1B4C4D"></path>
            <path d="M0.542039063,29.9082031 C0.542039063,29.1953089 0.733443398,28.637209 1.11625781,28.2338867 C1.49907223,27.8305644 1.99320791,27.6289062 2.59867969,27.6289062 C2.99516604,27.6289062 3.35258435,27.7236319 3.67094531,27.9130859 C3.98930628,28.10254 4.23197963,28.3666975 4.39897266,28.7055664 C4.56596568,29.0444353 4.64946094,29.4287088 4.64946094,29.8583984 C4.64946094,30.2939475 4.56157119,30.683592 4.38578906,31.0273438 C4.21000693,31.3710955 3.96098599,31.6313468 3.63871875,31.8081055 C3.31645151,31.9848642 2.96879874,32.0732422 2.59575,32.0732422 C2.1914511,32.0732422 1.83012659,31.9755869 1.51176563,31.7802734 C1.19340466,31.58496 0.952196133,31.3183611 0.788132813,30.9804688 C0.624069492,30.6425764 0.542039063,30.2851581 0.542039063,29.9082031 L0.542039063,29.9082031 Z M1.12797656,29.9169922 C1.12797656,30.4345729 1.26713533,30.8422837 1.54545703,31.1401367 C1.82377874,31.4379898 2.17289634,31.5869141 2.59282031,31.5869141 C3.02055683,31.5869141 3.37260409,31.4365249 3.64897266,31.1357422 C3.92534123,30.8349594 4.06352344,30.4082059 4.06352344,29.8554688 C4.06352344,29.5058576 4.004442,29.2006849 3.88627734,28.9399414 C3.76811269,28.6791979 3.59526286,28.4770515 3.36772266,28.3334961 C3.14018246,28.1899407 2.88481392,28.1181641 2.60160938,28.1181641 C2.19926361,28.1181641 1.85307567,28.2563463 1.56303516,28.5327148 C1.27299464,28.8090834 1.12797656,29.2705046 1.12797656,29.9169922 L1.12797656,29.9169922 Z M4.77836719,32 L6.42778125,27.7050781 L7.04008594,27.7050781 L8.79789844,32 L8.1504375,32 L7.64946094,30.6992188 L5.8535625,30.6992188 L5.38188281,32 L4.77836719,32 Z M6.017625,30.2363281 L7.47367969,30.2363281 L7.0254375,29.046875 C6.88871807,28.6855451 6.78715658,28.388673 6.72075,28.15625 C6.66606223,28.431642 6.58891456,28.7050768 6.48930469,28.9765625 L6.017625,30.2363281 Z M8.9473125,29.9082031 C8.9473125,29.1953089 9.13871684,28.637209 9.52153125,28.2338867 C9.90434566,27.8305644 10.3984813,27.6289062 11.0039531,27.6289062 C11.4004395,27.6289062 11.7578578,27.7236319 12.0762188,27.9130859 C12.3945797,28.10254 12.6372531,28.3666975 12.8042461,28.7055664 C12.9712391,29.0444353 13.0547344,29.4287088 13.0547344,29.8583984 C13.0547344,30.2939475 12.9668446,30.683592 12.7910625,31.0273438 C12.6152804,31.3710955 12.3662594,31.6313468 12.0439922,31.8081055 C11.721725,31.9848642 11.3740722,32.0732422 11.0010234,32.0732422 C10.5967245,32.0732422 10.2354,31.9755869 9.91703906,31.7802734 C9.5986781,31.58496 9.35746957,31.3183611 9.19340625,30.9804688 C9.02934293,30.6425764 8.9473125,30.2851581 8.9473125,29.9082031 L8.9473125,29.9082031 Z M9.53325,29.9169922 C9.53325,30.4345729 9.67240876,30.8422837 9.95073047,31.1401367 C10.2290522,31.4379898 10.5781698,31.5869141 10.9980938,31.5869141 C11.4258303,31.5869141 11.7778775,31.4365249 12.0542461,31.1357422 C12.3306147,30.8349594 12.4687969,30.4082059 12.4687969,29.8554688 C12.4687969,29.5058576 12.4097154,29.2006849 12.2915508,28.9399414 C12.1733861,28.6791979 12.0005363,28.4770515 11.7729961,28.3334961 C11.5454559,28.1899407 11.2900874,28.1181641 11.0068828,28.1181641 C10.6045371,28.1181641 10.2583491,28.2563463 9.96830859,28.5327148 C9.67826808,28.8090834 9.53325,29.2705046 9.53325,29.9169922 L9.53325,29.9169922 Z" id="ОАО" fill="#1B4C4D"></path>
            <path d="M15.9960938,30.453125 L16.7548828,31.7890625 L16.3271484,31.7890625 L15.3925781,30.453125 L16.3271484,29.1171875 L16.7607422,29.1171875 L15.9960938,30.453125 Z M17.1298828,30.453125 L17.9033203,31.7890625 L17.4580078,31.7890625 L16.5410156,30.453125 L17.4580078,29.1171875 L17.9033203,29.1171875 L17.1298828,30.453125 Z" id="«" fill="#1B4C4D"></path>
            <path d="M82.3173828,30.453125 L81.5527344,29.1171875 L81.9863281,29.1171875 L82.9208984,30.453125 L81.9863281,31.7890625 L81.5556641,31.7890625 L82.3173828,30.453125 Z M81.1835938,30.453125 L80.4101562,29.1171875 L80.8525391,29.1171875 L81.7724609,30.453125 L80.8525391,31.7890625 L80.4101562,31.7890625 L81.1835938,30.453125 Z" id="»" fill="#1B4C4D"></path>
        </g>
    </g>
</svg>