<?xml version="1.0" encoding="UTF-8"?>
<svg width="80px" height="34px" viewBox="0 0 80 34" version="1.1" xmlns="http://www.w3.org/2000/svg" xmlns:xlink="http://www.w3.org/1999/xlink">
    <!-- Generator: Sketch 39.1 (31720) - http://www.bohemiancoding.com/sketch -->
    <title>Group</title>
    <desc>Created with Sketch.</desc>
    <defs></defs>
    <g id="Page-1" stroke="none" stroke-width="1" fill="none" fill-rule="evenodd">
        <g id="Group">
            <polyline id="Fill-733" fill="#1B4C4D" points="25.361 0.2 11.189 24.579 39.315 24.579 25.361 0.2"></polyline>
            <path d="M64.514,9.849 C63.099,9.104 61.672,8.868 60.377,8.708 C59.081,8.55 57.918,8.467 55.646,8.882 C55.425,7.525 55.064,6.874 54.594,6.23 C54.123,5.585 53.541,4.949 51.574,3.867 C54.344,3.258 56.298,3.217 57.874,3.21 C59.451,3.203 60.651,3.231 61.838,3.346 C63.024,3.461 64.197,3.664 65.441,3.953 C66.687,4.242 68.002,4.616 69.877,5.33 C68.089,6.836 66.302,8.342 64.514,9.849" id="Fill-734" fill="#1B4C4D"></path>
            <path d="M27.436,2.401 C41.135,2.401 42.646,2.401 44.21,2.563 C45.773,2.726 47.39,3.05 48.728,3.473 C50.065,3.897 51.126,4.418 51.986,4.974 C52.846,5.53 53.507,6.12 53.984,6.919 C54.462,7.719 54.757,8.727 54.792,9.621 C54.826,10.517 54.601,11.298 54.176,12.064 C53.75,12.827 53.124,13.575 52.386,14.174 C51.646,14.774 50.796,15.225 49.623,15.668 C48.45,16.112 46.955,16.546 44.632,16.816 C42.308,17.084 39.153,17.19 37.335,17.194 L37.335,19.488 C34.035,13.792 30.735,8.096 27.436,2.401" id="Fill-735" fill="#1B4C4D"></path>
            <polygon id="Fill-736" fill="#DCF2F9" points="19.839 16.019 30.92 16.019 30.92 14.617 19.839 14.617"></polygon>
            <polygon id="Fill-737" fill="#DCF2F9" points="19.839 17.866 30.92 17.866 30.92 16.464 19.839 16.464"></polygon>
            <polygon id="Fill-738" fill="#DCF2F9" points="19.839 21.457 30.92 21.457 30.92 20.055 19.839 20.055"></polygon>
            <polyline id="Fill-739" fill="#DCF2F9" points="18.471 19.645 32.288 19.645 31.262 18.242 19.496 18.242 18.471 19.645"></polyline>
            <path d="M37.23,6.977 C40.742,6.573 43.107,8.169 43.149,9.729 C43.191,11.288 40.911,12.811 37.23,12.554 L37.23,6.977" id="Fill-740" fill="#DCF2F9"></path>
            <path d="M39.846,17.948 C40.923,19.363 42.316,20.432 43.52,21.185 C44.723,21.938 45.736,22.374 46.721,22.747 C47.706,23.12 48.664,23.43 49.789,23.648 C50.915,23.866 52.21,23.992 53.794,24.084 C55.377,24.176 57.249,24.232 58.847,24.197 C60.443,24.161 61.767,24.034 63.305,23.876 C64.842,23.718 66.595,23.529 70.425,22.526 L70.425,12.027 L56.433,12.027 C55.855,13.392 55.278,14.757 54.701,16.122 L59.895,16.122 L59.895,18.786 C57.805,18.786 56.889,18.856 56.024,18.779 C55.159,18.701 54.348,18.481 53.484,18.19 C52.621,17.899 51.706,17.538 50.376,16.181 C47.946,17.118 46.398,17.511 44.76,17.702 C43.122,17.893 41.395,17.882 39.846,17.948" id="Fill-741" fill="#1B4C4D"></path>
            <path d="M0.290039062,29.9082031 C0.290039062,29.1953089 0.481443398,28.637209 0.864257812,28.2338867 C1.24707223,27.8305644 1.74120791,27.6289062 2.34667969,27.6289062 C2.74316604,27.6289062 3.10058435,27.7236319 3.41894531,27.9130859 C3.73730628,28.10254 3.97997963,28.3666975 4.14697266,28.7055664 C4.31396568,29.0444353 4.39746094,29.4287088 4.39746094,29.8583984 C4.39746094,30.2939475 4.30957119,30.683592 4.13378906,31.0273438 C3.95800693,31.3710955 3.70898599,31.6313468 3.38671875,31.8081055 C3.06445151,31.9848642 2.71679874,32.0732422 2.34375,32.0732422 C1.9394511,32.0732422 1.57812659,31.9755869 1.25976562,31.7802734 C0.941404658,31.58496 0.700196133,31.3183611 0.536132812,30.9804688 C0.372069492,30.6425764 0.290039062,30.2851581 0.290039062,29.9082031 L0.290039062,29.9082031 Z M0.875976562,29.9169922 C0.875976562,30.4345729 1.01513533,30.8422837 1.29345703,31.1401367 C1.57177874,31.4379898 1.92089634,31.5869141 2.34082031,31.5869141 C2.76855683,31.5869141 3.12060409,31.4365249 3.39697266,31.1357422 C3.67334123,30.8349594 3.81152344,30.4082059 3.81152344,29.8554688 C3.81152344,29.5058576 3.752442,29.2006849 3.63427734,28.9399414 C3.51611269,28.6791979 3.34326286,28.4770515 3.11572266,28.3334961 C2.88818246,28.1899407 2.63281392,28.1181641 2.34960938,28.1181641 C1.94726361,28.1181641 1.60107567,28.2563463 1.31103516,28.5327148 C1.02099464,28.8090834 0.875976562,29.2705046 0.875976562,29.9169922 L0.875976562,29.9169922 Z M4.83984375,30.78125 L5.35253906,30.7109375 C5.36621101,31.0390641 5.42773383,31.2636713 5.53710938,31.3847656 C5.64648492,31.50586 5.7978506,31.5664062 5.99121094,31.5664062 C6.13378978,31.5664062 6.25683542,31.5336917 6.36035156,31.4682617 C6.46386771,31.4028317 6.53515605,31.3139654 6.57421875,31.2016602 C6.61328145,31.0893549 6.6328125,30.9101575 6.6328125,30.6640625 L6.6328125,27.7050781 L7.20117188,27.7050781 L7.20117188,30.6318359 C7.20117188,30.9912127 7.15771528,31.2695303 7.07080078,31.4667969 C6.98388628,31.6640635 6.84619235,31.8144526 6.65771484,31.9179688 C6.46923734,32.0214849 6.24804814,32.0732422 5.99414062,32.0732422 C5.61718562,32.0732422 5.32861428,31.9648448 5.12841797,31.7480469 C4.92822166,31.5312489 4.83203121,31.2089865 4.83984375,30.78125 L4.83984375,30.78125 Z M7.93652344,30.6201172 L8.47265625,30.5732422 C8.498047,30.788087 8.55712844,30.9643548 8.64990234,31.1020508 C8.74267625,31.2397468 8.88671777,31.3510738 9.08203125,31.4360352 C9.27734473,31.5209965 9.49706909,31.5634766 9.74121094,31.5634766 C9.9580089,31.5634766 10.1494132,31.5312503 10.3154297,31.4667969 C10.4814461,31.4023434 10.6049801,31.3139654 10.6860352,31.2016602 C10.7670902,31.0893549 10.8076172,30.9667975 10.8076172,30.8339844 C10.8076172,30.6992181 10.7685551,30.5815435 10.6904297,30.480957 C10.6123043,30.3803706 10.4833993,30.2958988 10.3037109,30.2275391 C10.188476,30.182617 9.93359572,30.1127934 9.5390625,30.0180664 C9.14452928,29.9233394 8.86816485,29.8339848 8.70996094,29.75 C8.50488179,29.6425776 8.35205128,29.5092781 8.25146484,29.3500977 C8.1508784,29.1909172 8.10058594,29.0126963 8.10058594,28.8154297 C8.10058594,28.5986317 8.16210876,28.395997 8.28515625,28.2075195 C8.40820374,28.019042 8.58788944,27.8759771 8.82421875,27.7783203 C9.06054806,27.6806636 9.32324074,27.6318359 9.61230469,27.6318359 C9.93066565,27.6318359 10.2114246,27.683105 10.4545898,27.7856445 C10.6977551,27.8881841 10.884765,28.0390615 11.015625,28.2382812 C11.146485,28.437501 11.2167968,28.6630847 11.2265625,28.9150391 L10.6816406,28.9560547 C10.6523436,28.684569 10.5532235,28.4794929 10.3842773,28.3408203 C10.2153312,28.2021477 9.96582196,28.1328125 9.63574219,28.1328125 C9.29199047,28.1328125 9.04150469,28.1958002 8.88427734,28.3217773 C8.72705,28.4477545 8.6484375,28.5996085 8.6484375,28.7773438 C8.6484375,28.9316414 8.70410101,29.0585933 8.81542969,29.1582031 C8.92480523,29.257813 9.21044691,29.3598628 9.67236328,29.4643555 C10.1342797,29.5688482 10.451171,29.6601559 10.6230469,29.7382812 C10.8730481,29.8535162 11.0576166,29.9995108 11.1767578,30.1762695 C11.295899,30.3530282 11.3554688,30.5566395 11.3554688,30.7871094 C11.3554688,31.0156261 11.2900397,31.230956 11.1591797,31.4331055 C11.0283197,31.6352549 10.8403333,31.7924799 10.5952148,31.9047852 C10.3500964,32.0170904 10.0742203,32.0732422 9.76757812,32.0732422 C9.37890431,32.0732422 9.05322397,32.0166021 8.79052734,31.9033203 C8.52783072,31.7900385 8.32177809,31.61963 8.17236328,31.3920898 C8.02294847,31.1645496 7.94433598,30.907228 7.93652344,30.6201172 L7.93652344,30.6201172 Z M15.1962891,30.4941406 L15.7646484,30.6376953 C15.6455072,31.1044945 15.4311539,31.460448 15.121582,31.7055664 C14.8120102,31.9506848 14.433596,32.0732422 13.9863281,32.0732422 C13.5234352,32.0732422 13.1469741,31.9790048 12.8569336,31.7905273 C12.5668931,31.6020498 12.3461922,31.3291033 12.1948242,30.9716797 C12.0434563,30.614256 11.9677734,30.2304708 11.9677734,29.8203125 C11.9677734,29.3730446 12.0532218,28.9829118 12.2241211,28.6499023 C12.3950204,28.3168929 12.638182,28.0639657 12.9536133,27.8911133 C13.2690445,27.7182609 13.616209,27.6318359 13.9951172,27.6318359 C14.4248068,27.6318359 14.7861313,27.7412098 15.0791016,27.9599609 C15.3720718,28.178712 15.5761713,28.4863261 15.6914062,28.8828125 L15.1318359,29.0146484 C15.0322261,28.7021469 14.8876963,28.4746101 14.6982422,28.3320312 C14.5087881,28.1894524 14.2705092,28.1181641 13.9833984,28.1181641 C13.6533187,28.1181641 13.3774425,28.1972648 13.1557617,28.3554688 C12.9340809,28.5136727 12.7783208,28.7260729 12.6884766,28.9926758 C12.5986324,29.2592787 12.5537109,29.5341783 12.5537109,29.8173828 C12.5537109,30.182619 12.6069331,30.5014635 12.7133789,30.7739258 C12.8198248,31.0463881 12.9853504,31.2499993 13.2099609,31.3847656 C13.4345714,31.5195319 13.6777331,31.5869141 13.9394531,31.5869141 C14.2578141,31.5869141 14.5273426,31.4951181 14.7480469,31.3115234 C14.9687511,31.1279288 15.1181637,30.8554706 15.1962891,30.4941406 L15.1962891,30.4941406 Z M18.6650391,30.453125 L19.4238281,31.7890625 L18.9960938,31.7890625 L18.0615234,30.453125 L18.9960938,29.1171875 L19.4296875,29.1171875 L18.6650391,30.453125 Z M19.7988281,30.453125 L20.5722656,31.7890625 L20.1269531,31.7890625 L19.2099609,30.453125 L20.1269531,29.1171875 L20.5722656,29.1171875 L19.7988281,30.453125 Z M20.9970703,32 L22.6464844,27.7050781 L23.2587891,27.7050781 L25.0166016,32 L24.3691406,32 L23.8681641,30.6992188 L22.0722656,30.6992188 L21.6005859,32 L20.9970703,32 Z M22.2363281,30.2363281 L23.6923828,30.2363281 L23.2441406,29.046875 C23.1074212,28.6855451 23.0058597,28.388673 22.9394531,28.15625 C22.8847654,28.431642 22.8076177,28.7050768 22.7080078,28.9765625 L22.2363281,30.2363281 Z M25.4707031,32 L25.4707031,27.7050781 L27.0908203,27.7050781 C27.375978,27.7050781 27.5937492,27.7187499 27.7441406,27.7460938 C27.9550792,27.7812502 28.1318352,27.848144 28.2744141,27.9467773 C28.4169929,28.0454106 28.5317378,28.1835929 28.6186523,28.3613281 C28.7055668,28.5390634 28.7490234,28.7343739 28.7490234,28.9472656 C28.7490234,29.3125018 28.6328137,29.6215808 28.4003906,29.8745117 C28.1679676,30.1274427 27.7480499,30.2539062 27.140625,30.2539062 L26.0390625,30.2539062 L26.0390625,32 L25.4707031,32 Z M26.0390625,29.7470703 L27.1494141,29.7470703 C27.5166034,29.7470703 27.777343,29.6787116 27.9316406,29.5419922 C28.0859383,29.4052728 28.1630859,29.2128919 28.1630859,28.9648438 C28.1630859,28.7851554 28.1176762,28.6313483 28.0268555,28.503418 C27.9360347,28.3754876 27.816407,28.2910158 27.6679688,28.25 C27.5722651,28.2246092 27.3955091,28.2119141 27.1376953,28.2119141 L26.0390625,28.2119141 L26.0390625,29.7470703 Z M31.4824219,30.3154297 L31.4824219,29.8115234 L33.3017578,29.8085938 L33.3017578,31.4023438 C33.0224595,31.6250011 32.7343765,31.7924799 32.4375,31.9047852 C32.1406235,32.0170904 31.8359391,32.0732422 31.5234375,32.0732422 C31.1015604,32.0732422 30.7182634,31.9829111 30.3735352,31.8022461 C30.0288069,31.6215811 29.7685556,31.3603533 29.5927734,31.0185547 C29.4169913,30.6767561 29.3291016,30.294924 29.3291016,29.8730469 C29.3291016,29.455076 29.416503,29.0649432 29.5913086,28.7026367 C29.7661142,28.3403302 30.0175765,28.0712899 30.3457031,27.8955078 C30.6738298,27.7197257 31.0517557,27.6318359 31.4794922,27.6318359 C31.7900406,27.6318359 32.0707995,27.6821284 32.3217773,27.7827148 C32.5727552,27.8833013 32.7695305,28.0234366 32.9121094,28.203125 C33.0546882,28.3828134 33.1630856,28.6171861 33.2373047,28.90625 L32.7246094,29.046875 C32.6601559,28.8281239 32.5800786,28.6562506 32.484375,28.53125 C32.3886714,28.4062494 32.251954,28.3061527 32.0742188,28.230957 C31.8964835,28.1557613 31.6992198,28.1181641 31.4824219,28.1181641 C31.222655,28.1181641 30.9980478,28.1577144 30.8085938,28.2368164 C30.6191397,28.3159184 30.4663092,28.4199212 30.3500977,28.5488281 C30.2338861,28.677735 30.143555,28.8193352 30.0791016,28.9736328 C29.969726,29.2392591 29.9150391,29.5273422 29.9150391,29.8378906 C29.9150391,30.220705 29.9809564,30.5410143 30.112793,30.7988281 C30.2446296,31.0566419 30.4365222,31.2480463 30.6884766,31.3730469 C30.9404309,31.4980475 31.2080064,31.5605469 31.4912109,31.5605469 C31.7373059,31.5605469 31.9775379,31.5131841 32.2119141,31.418457 C32.4462902,31.32373 32.6240228,31.2226568 32.7451172,31.1152344 L32.7451172,30.3154297 L31.4824219,30.3154297 Z M35.8183594,32 L35.8183594,27.7050781 L38.9238281,27.7050781 L38.9238281,28.2119141 L36.3867188,28.2119141 L36.3867188,29.5273438 L38.7626953,29.5273438 L38.7626953,30.03125 L36.3867188,30.03125 L36.3867188,31.4931641 L39.0234375,31.4931641 L39.0234375,32 L35.8183594,32 Z M41.7714844,31.6162109 C41.5761709,31.7822274 41.3881845,31.8994137 41.2075195,31.9677734 C41.0268546,32.0361332 40.8330088,32.0703125 40.6259766,32.0703125 C40.284178,32.0703125 40.0214853,31.9868172 39.8378906,31.8198242 C39.654296,31.6528312 39.5625,31.4394544 39.5625,31.1796875 C39.5625,31.027343 39.5971676,30.8881842 39.6665039,30.762207 C39.7358402,30.6362298 39.8266596,30.5351566 39.9389648,30.4589844 C40.0512701,30.3828121 40.1777337,30.3251955 40.3183594,30.2861328 C40.4218755,30.2587889 40.578124,30.232422 40.7871094,30.2070312 C41.2128928,30.1562497 41.5263662,30.0957035 41.7275391,30.0253906 C41.7294922,29.9531246 41.7304688,29.9072267 41.7304688,29.8876953 C41.7304688,29.6728505 41.6806646,29.5214848 41.5810547,29.4335938 C41.4462884,29.3144525 41.2460951,29.2548828 40.9804688,29.2548828 C40.7324206,29.2548828 40.549317,29.2983394 40.4311523,29.3852539 C40.3129877,29.4721684 40.2255862,29.6259755 40.1689453,29.8466797 L39.6533203,29.7763672 C39.7001955,29.555663 39.7773432,29.3774421 39.8847656,29.2416992 C39.992188,29.1059564 40.1474599,29.0014652 40.3505859,28.9282227 C40.553712,28.8549801 40.7890612,28.8183594 41.0566406,28.8183594 C41.322267,28.8183594 41.5380851,28.8496091 41.7041016,28.9121094 C41.870118,28.9746097 41.9921871,29.0532222 42.0703125,29.1479492 C42.1484379,29.2426763 42.2031248,29.362304 42.234375,29.5068359 C42.2519532,29.5966801 42.2607422,29.7587879 42.2607422,29.9931641 L42.2607422,30.6962891 C42.2607422,31.1865259 42.2719725,31.4965814 42.2944336,31.6264648 C42.3168946,31.7563483 42.3613278,31.8808588 42.4277344,32 L41.8769531,32 C41.8222654,31.8906245 41.7871095,31.762696 41.7714844,31.6162109 L41.7714844,31.6162109 Z M41.7275391,30.4384766 C41.5361319,30.516602 41.2490254,30.5830075 40.8662109,30.6376953 C40.649413,30.6689455 40.4960942,30.7041014 40.40625,30.7431641 C40.3164058,30.7822268 40.2470706,30.8393551 40.1982422,30.9145508 C40.1494138,30.9897465 40.125,31.0732417 40.125,31.1650391 C40.125,31.3056648 40.1782221,31.4228511 40.284668,31.5166016 C40.3911138,31.610352 40.546874,31.6572266 40.7519531,31.6572266 C40.9550791,31.6572266 41.1357414,31.6127934 41.2939453,31.5239258 C41.4521492,31.4350581 41.568359,31.3134773 41.6425781,31.1591797 C41.699219,31.0400385 41.7275391,30.864259 41.7275391,30.6318359 L41.7275391,30.4384766 Z M42.8671875,31.0712891 L43.3886719,30.9892578 C43.4179689,31.1982432 43.499511,31.3583979 43.6333008,31.4697266 C43.7670905,31.5810552 43.9541004,31.6367188 44.1943359,31.6367188 C44.4365246,31.6367188 44.6162104,31.5874028 44.7333984,31.4887695 C44.8505865,31.3901362 44.9091797,31.2744147 44.9091797,31.1416016 C44.9091797,31.0224603 44.8574224,30.9287113 44.7539062,30.8603516 C44.6816403,30.8134763 44.5019546,30.7539066 44.2148438,30.6816406 C43.8281231,30.5839839 43.5600593,30.4995121 43.4106445,30.4282227 C43.2612297,30.3569332 43.1479496,30.2583014 43.0708008,30.1323242 C42.993652,30.006347 42.9550781,29.8671883 42.9550781,29.7148438 C42.9550781,29.5761712 42.9868161,29.4477545 43.050293,29.3295898 C43.1137698,29.2114252 43.2001948,29.1132816 43.3095703,29.0351562 C43.391602,28.9746091 43.5034173,28.9233401 43.6450195,28.8813477 C43.7866218,28.8393553 43.9384758,28.8183594 44.1005859,28.8183594 C44.3447278,28.8183594 44.5590811,28.8535153 44.7436523,28.9238281 C44.9282236,28.994141 45.0644527,29.0893549 45.1523438,29.2094727 C45.2402348,29.3295904 45.3007811,29.4902334 45.3339844,29.6914062 L44.8183594,29.7617188 C44.7949218,29.6015617 44.7270513,29.4765629 44.6147461,29.3867188 C44.5024408,29.2968746 44.343751,29.2519531 44.1386719,29.2519531 C43.8964832,29.2519531 43.7236333,29.2919918 43.6201172,29.3720703 C43.516601,29.4521488 43.4648438,29.5458979 43.4648438,29.6533203 C43.4648438,29.72168 43.4863279,29.7832029 43.5292969,29.8378906 C43.5722658,29.8945315 43.639648,29.9414061 43.7314453,29.9785156 C43.78418,29.998047 43.9394518,30.0429684 44.1972656,30.1132812 C44.5703144,30.2128911 44.8305657,30.2944333 44.9780273,30.3579102 C45.125489,30.421387 45.2412105,30.5136713 45.3251953,30.6347656 C45.4091801,30.75586 45.4511719,30.9062491 45.4511719,31.0859375 C45.4511719,31.2617196 45.3999029,31.4272453 45.2973633,31.5825195 C45.1948237,31.7377937 45.046876,31.8579097 44.8535156,31.9428711 C44.6601553,32.0278325 44.4414075,32.0703125 44.1972656,32.0703125 C43.7929667,32.0703125 43.4848643,31.986329 43.2729492,31.8183594 C43.0610341,31.6503898 42.9257815,31.4013688 42.8671875,31.0712891 L42.8671875,31.0712891 Z M47.2294922,31.5283203 L47.3056641,31.9941406 C47.1572258,32.0253908 47.0244146,32.0410156 46.9072266,32.0410156 C46.7158194,32.0410156 46.5673833,32.0107425 46.4619141,31.9501953 C46.3564448,31.8896481 46.2822268,31.8100591 46.2392578,31.7114258 C46.1962888,31.6127925 46.1748047,31.405275 46.1748047,31.0888672 L46.1748047,29.2988281 L45.7880859,29.2988281 L45.7880859,28.8886719 L46.1748047,28.8886719 L46.1748047,28.1181641 L46.6992188,27.8017578 L46.6992188,28.8886719 L47.2294922,28.8886719 L47.2294922,29.2988281 L46.6992188,29.2988281 L46.6992188,31.1181641 C46.6992188,31.2685554 46.708496,31.3652342 46.7270508,31.4082031 C46.7456056,31.4511721 46.7758787,31.4853514 46.8178711,31.5107422 C46.8598635,31.5361329 46.9199215,31.5488281 46.9980469,31.5488281 C47.0566409,31.5488281 47.1337886,31.5419923 47.2294922,31.5283203 L47.2294922,31.5283203 Z M49.875,30.9980469 L50.4199219,31.0654297 C50.3339839,31.3837907 50.1748058,31.6308585 49.9423828,31.8066406 C49.7099598,31.9824228 49.4130877,32.0703125 49.0517578,32.0703125 C48.5966774,32.0703125 48.2358412,31.9301772 47.9692383,31.6499023 C47.7026354,31.3696275 47.5693359,30.976565 47.5693359,30.4707031 C47.5693359,29.947263 47.7041002,29.5410171 47.9736328,29.2519531 C48.2431654,28.9628892 48.5927713,28.8183594 49.0224609,28.8183594 C49.4384786,28.8183594 49.778319,28.9599595 50.0419922,29.2431641 C50.3056654,29.5263686 50.4375,29.9248021 50.4375,30.4384766 C50.4375,30.4697267 50.4365234,30.5166013 50.4345703,30.5791016 L48.1142578,30.5791016 C48.1337892,30.9209001 48.2304679,31.1826163 48.4042969,31.3642578 C48.5781259,31.5458993 48.7949206,31.6367188 49.0546875,31.6367188 C49.2480478,31.6367188 49.4130853,31.585938 49.5498047,31.484375 C49.6865241,31.382812 49.7949215,31.2207042 49.875,30.9980469 L49.875,30.9980469 Z M48.1435547,30.1455078 L49.8808594,30.1455078 C49.8574218,29.8837878 49.7910162,29.6875007 49.6816406,29.5566406 C49.513671,29.3535146 49.2958998,29.2519531 49.0283203,29.2519531 C48.7861316,29.2519531 48.5825204,29.333007 48.4174805,29.4951172 C48.2524406,29.6572274 48.1611329,29.8740221 48.1435547,30.1455078 L48.1435547,30.1455078 Z M51.0761719,32 L51.0761719,28.8886719 L51.5507812,28.8886719 L51.5507812,29.3603516 C51.6718756,29.1396473 51.7836909,28.994141 51.8862305,28.9238281 C51.98877,28.8535153 52.1015619,28.8183594 52.2246094,28.8183594 C52.4023446,28.8183594 52.5830069,28.8749994 52.7666016,28.9882812 L52.5849609,29.4775391 C52.456054,29.4013668 52.3271491,29.3632812 52.1982422,29.3632812 C52.0830072,29.3632812 51.9794926,29.3979489 51.8876953,29.4672852 C51.795898,29.5366214 51.7304689,29.6328119 51.6914062,29.7558594 C51.6328122,29.9433603 51.6035156,30.1484364 51.6035156,30.3710938 L51.6035156,32 L51.0761719,32 Z M53.0800781,32 L53.0800781,28.8886719 L53.5546875,28.8886719 L53.5546875,29.3310547 C53.7832043,28.9892561 54.1132791,28.8183594 54.5449219,28.8183594 C54.7324228,28.8183594 54.9047844,28.8520504 55.0620117,28.9194336 C55.2192391,28.9868167 55.3369137,29.0751948 55.4150391,29.1845703 C55.4931645,29.2939459 55.5478514,29.4238274 55.5791016,29.5742188 C55.5986329,29.6718755 55.6083984,29.8427722 55.6083984,30.0869141 L55.6083984,32 L55.0810547,32 L55.0810547,30.1074219 C55.0810547,29.8925771 55.0605471,29.7319341 55.0195312,29.6254883 C54.9785154,29.5190424 54.9057622,29.4340823 54.8012695,29.3706055 C54.6967768,29.3071286 54.5742195,29.2753906 54.4335938,29.2753906 C54.2089833,29.2753906 54.0151375,29.346679 53.8520508,29.4892578 C53.688964,29.6318367 53.6074219,29.9023418 53.6074219,30.3007812 L53.6074219,32 L53.0800781,32 Z M58.1630859,32 L58.1630859,27.7050781 L61.2685547,27.7050781 L61.2685547,28.2119141 L58.7314453,28.2119141 L58.7314453,29.5273438 L61.1074219,29.5273438 L61.1074219,30.03125 L58.7314453,30.03125 L58.7314453,31.4931641 L61.3681641,31.4931641 L61.3681641,32 L58.1630859,32 Z M64.125,32 L64.125,31.5429688 C63.8828113,31.894533 63.553713,32.0703125 63.1376953,32.0703125 C62.9541006,32.0703125 62.7827156,32.0351566 62.6235352,31.9648438 C62.4643547,31.8945309 62.3461918,31.8061529 62.269043,31.699707 C62.1918941,31.5932612 62.1376955,31.4628914 62.1064453,31.3085938 C62.0849608,31.2050776 62.0742188,31.0410167 62.0742188,30.8164062 L62.0742188,28.8886719 L62.6015625,28.8886719 L62.6015625,30.6142578 C62.6015625,30.8896498 62.6123046,31.0751948 62.6337891,31.1708984 C62.6669924,31.309571 62.7373042,31.4184566 62.8447266,31.4975586 C62.952149,31.5766606 63.0849601,31.6162109 63.2431641,31.6162109 C63.401368,31.6162109 63.549804,31.575684 63.6884766,31.4946289 C63.8271491,31.4135738 63.9252927,31.3032234 63.9829102,31.1635742 C64.0405276,31.0239251 64.0693359,30.8212904 64.0693359,30.5556641 L64.0693359,28.8886719 L64.5966797,28.8886719 L64.5966797,32 L64.125,32 Z M65.4169922,32 L65.4169922,28.8886719 L65.8916016,28.8886719 L65.8916016,29.3603516 C66.0126959,29.1396473 66.1245112,28.994141 66.2270508,28.9238281 C66.3295904,28.8535153 66.4423822,28.8183594 66.5654297,28.8183594 C66.743165,28.8183594 66.9238272,28.8749994 67.1074219,28.9882812 L66.9257812,29.4775391 C66.7968744,29.4013668 66.6679694,29.3632812 66.5390625,29.3632812 C66.4238275,29.3632812 66.320313,29.3979489 66.2285156,29.4672852 C66.1367183,29.5366214 66.0712893,29.6328119 66.0322266,29.7558594 C65.9736325,29.9433603 65.9443359,30.1484364 65.9443359,30.3710938 L65.9443359,32 L65.4169922,32 Z M67.2246094,30.4443359 C67.2246094,29.8681612 67.384764,29.4414076 67.7050781,29.1640625 C67.9726576,28.9335926 68.2988262,28.8183594 68.6835938,28.8183594 C69.1113303,28.8183594 69.4609361,28.9584947 69.7324219,29.2387695 C70.0039076,29.5190444 70.1396484,29.9062475 70.1396484,30.4003906 C70.1396484,30.8007833 70.0795904,31.1157215 69.9594727,31.3452148 C69.8393549,31.5747082 69.6645519,31.7529291 69.4350586,31.8798828 C69.2055653,32.0068366 68.9550795,32.0703125 68.6835938,32.0703125 C68.2480447,32.0703125 67.8959974,31.9306655 67.6274414,31.6513672 C67.3588854,31.3720689 67.2246094,30.9697292 67.2246094,30.4443359 L67.2246094,30.4443359 Z M67.7666016,30.4443359 C67.7666016,30.8427754 67.8535148,31.1411123 68.0273438,31.3393555 C68.2011727,31.5375986 68.4199206,31.6367188 68.6835938,31.6367188 C68.9453138,31.6367188 69.1630851,31.5371104 69.3369141,31.3378906 C69.5107431,31.1386709 69.5976562,30.834963 69.5976562,30.4267578 C69.5976562,30.0419903 69.5102548,29.7504893 69.3354492,29.5522461 C69.1606437,29.3540029 68.9433607,29.2548828 68.6835938,29.2548828 C68.4199206,29.2548828 68.2011727,29.3535146 68.0273438,29.5507812 C67.8535148,29.7480479 67.7666016,30.0458964 67.7666016,30.4443359 L67.7666016,30.4443359 Z M70.7578125,33.1923828 L70.7578125,28.8886719 L71.2382812,28.8886719 L71.2382812,29.2929688 C71.3515631,29.1347648 71.4794915,29.0161137 71.6220703,28.9370117 C71.7646492,28.8579098 71.937499,28.8183594 72.140625,28.8183594 C72.4062513,28.8183594 72.640624,28.8867181 72.84375,29.0234375 C73.046876,29.1601569 73.2001948,29.3530261 73.3037109,29.6020508 C73.4072271,29.8510755 73.4589844,30.124022 73.4589844,30.4208984 C73.4589844,30.7392594 73.401856,31.0258776 73.2875977,31.2807617 C73.1733393,31.5356458 73.0073253,31.7309564 72.7895508,31.8666992 C72.5717763,32.0024421 72.3427746,32.0703125 72.1025391,32.0703125 C71.9267569,32.0703125 71.7690437,32.0332035 71.6293945,31.9589844 C71.4897454,31.8847653 71.3750004,31.7910162 71.2851562,31.6777344 L71.2851562,33.1923828 L70.7578125,33.1923828 Z M71.2353516,30.4619141 C71.2353516,30.8623067 71.3164054,31.1582022 71.4785156,31.3496094 C71.6406258,31.5410166 71.8369129,31.6367188 72.0673828,31.6367188 C72.301759,31.6367188 72.5024406,31.5375986 72.6694336,31.3393555 C72.8364266,31.1411123 72.9199219,30.8339865 72.9199219,30.4179688 C72.9199219,30.0214824 72.8383797,29.7246104 72.675293,29.5273438 C72.5122062,29.3300771 72.3173839,29.2314453 72.0908203,29.2314453 C71.8662098,29.2314453 71.6674813,29.3364247 71.4946289,29.5463867 C71.3217765,29.7563487 71.2353516,30.0615214 71.2353516,30.4619141 L71.2353516,30.4619141 Z M76.2246094,30.9980469 L76.7695312,31.0654297 C76.6835933,31.3837907 76.5244152,31.6308585 76.2919922,31.8066406 C76.0595692,31.9824228 75.7626971,32.0703125 75.4013672,32.0703125 C74.9462868,32.0703125 74.5854506,31.9301772 74.3188477,31.6499023 C74.0522448,31.3696275 73.9189453,30.976565 73.9189453,30.4707031 C73.9189453,29.947263 74.0537096,29.5410171 74.3232422,29.2519531 C74.5927748,28.9628892 74.9423807,28.8183594 75.3720703,28.8183594 C75.788088,28.8183594 76.1279284,28.9599595 76.3916016,29.2431641 C76.6552748,29.5263686 76.7871094,29.9248021 76.7871094,30.4384766 C76.7871094,30.4697267 76.7861328,30.5166013 76.7841797,30.5791016 L74.4638672,30.5791016 C74.4833985,30.9209001 74.5800773,31.1826163 74.7539062,31.3642578 C74.9277352,31.5458993 75.14453,31.6367188 75.4042969,31.6367188 C75.5976572,31.6367188 75.7626946,31.585938 75.8994141,31.484375 C76.0361335,31.382812 76.1445308,31.2207042 76.2246094,30.9980469 L76.2246094,30.9980469 Z M74.4931641,30.1455078 L76.2304688,30.1455078 C76.2070311,29.8837878 76.1406255,29.6875007 76.03125,29.5566406 C75.8632804,29.3535146 75.6455092,29.2519531 75.3779297,29.2519531 C75.135741,29.2519531 74.9321297,29.333007 74.7670898,29.4951172 C74.60205,29.6572274 74.5107423,29.8740221 74.4931641,30.1455078 L74.4931641,30.1455078 Z M79.3535156,30.453125 L78.5888672,29.1171875 L79.0224609,29.1171875 L79.9570312,30.453125 L79.0224609,31.7890625 L78.5917969,31.7890625 L79.3535156,30.453125 Z M78.2197266,30.453125 L77.4462891,29.1171875 L77.8886719,29.1171875 L78.8085938,30.453125 L77.8886719,31.7890625 L77.4462891,31.7890625 L78.2197266,30.453125 Z" id="OJSC-«APG-Eastern-Eu" fill="#1B4C4D"></path>
        </g>
    </g>
</svg>