<?xml version="1.0" encoding="UTF-8"?>
<svg width="96px" height="15px" viewBox="0 0 96 15" version="1.1" xmlns="http://www.w3.org/2000/svg" xmlns:xlink="http://www.w3.org/1999/xlink">
    <!-- Generator: Sketch 39.1 (31720) - http://www.bohemiancoding.com/sketch -->
    <title>Group 2</title>
    <desc>Created with Sketch.</desc>
    <defs></defs>
    <g id="Page-1" stroke="none" stroke-width="1" fill="none" fill-rule="evenodd">
        <g id="Group-2" fill="#00A1B7">
            <path d="M81.445,3.468 L81.441,3.468 C80.511,3.768 79.701,4.736 79.482,5.81 C79.438,6.021 79.419,6.218 79.419,6.402 C79.42,6.905 79.573,7.31 79.883,7.646 C80.207,7.989 80.879,8.194 81.891,8.193 L83.686,8.193 C84.145,8.194 84.466,8.24 84.682,8.371 L84.685,8.368 L84.69,8.374 L84.695,8.374 L84.694,8.377 C85.004,8.541 85.173,8.837 85.169,9.182 C85.169,9.277 85.159,9.374 85.139,9.476 C85.058,9.874 84.82,10.199 84.457,10.39 L84.457,10.392 L84.453,10.392 C84.147,10.561 83.681,10.623 83.017,10.623 L79.074,10.623 L78.786,11.926 L82.956,11.926 C84.249,11.927 84.843,11.83 85.289,11.583 L85.29,11.583 C86.03,11.18 86.636,10.327 86.822,9.419 C86.868,9.197 86.89,8.968 86.89,8.751 C86.89,8.25 86.769,7.795 86.586,7.571 L86.585,7.571 L86.584,7.57 C86.39,7.316 86.158,7.156 85.806,7.045 C85.45,6.937 84.971,6.888 84.307,6.888 L82.771,6.888 C82.427,6.888 82.212,6.882 82.039,6.859 C81.87,6.835 81.743,6.791 81.613,6.726 C81.329,6.593 81.169,6.318 81.173,5.991 C81.173,5.896 81.185,5.798 81.206,5.697 C81.313,5.156 81.626,4.78 82.106,4.674 C82.284,4.632 82.429,4.619 82.536,4.604 L82.54,4.604 C82.679,4.591 82.931,4.591 83.346,4.591 L86.837,4.591 L87.084,3.287 L83.35,3.287 C82.294,3.287 81.834,3.329 81.445,3.468" id="Fill-694"></path>
            <polyline id="Fill-695" points="66.098 10.623 67.555 3.287 65.949 3.287 64.239 11.926 69.143 11.926 69.43 10.623 66.098 10.623"></polyline>
            <path d="M73.079,8.549 L75.129,5.208 L75.322,4.895 L76.059,8.549 L73.079,8.549 L73.079,8.549 Z M76.661,3.287 L74.678,3.287 L69.292,11.926 L71.218,11.926 L72.503,9.851 L76.101,9.851 L76.53,11.926 L78.474,11.926 L76.661,3.287 L76.661,3.287 Z" id="Fill-696"></path>
            <polyline id="Fill-697" points="87.663 3.287 87.438 4.591 90.4 4.591 88.89 11.926 90.492 11.926 92.006 4.591 94.949 4.591 95.219 3.287 87.663 3.287"></polyline>
            <path d="M25.393,4.552 L28.134,4.552 L30.419,4.552 L30.674,3.241 L24.046,3.241 L22.358,11.931 L28.985,11.931 L29.239,10.619 L24.215,10.619 L24.677,8.241 L29.702,8.241 L29.957,6.93 L24.931,6.93 L25.393,4.552" id="Fill-698"></path>
            <path d="M58.854,4.591 L61.742,4.591 C62.278,4.594 62.675,4.691 62.888,4.967 L62.889,4.967 L62.89,4.97 L62.894,4.972 L62.89,4.972 C62.998,5.11 63.041,5.293 63.041,5.506 C63.041,5.655 63.021,5.823 62.979,6.01 C62.878,6.506 62.716,6.888 62.418,7.142 C62.117,7.398 61.562,7.506 61.016,7.506 L58.254,7.506 L58.854,4.591 L58.854,4.591 Z M57.344,11.926 L57.964,8.924 L57.987,8.809 L61.157,8.809 C62.173,8.804 62.967,8.524 63.582,7.962 C64.104,7.474 64.457,6.839 64.625,6.02 C64.684,5.724 64.716,5.46 64.716,5.223 C64.714,4.771 64.609,4.417 64.406,4.139 C64,3.594 63.165,3.287 61.858,3.287 L57.519,3.287 L55.74,11.926 L57.344,11.926 L57.344,11.926 Z" id="Fill-699"></path>
            <path d="M54.018,7.643 C53.8,8.696 53.461,9.476 52.956,9.998 C52.45,10.524 51.776,10.773 50.951,10.77 C50.308,10.77 49.801,10.623 49.459,10.286 C49.115,9.95 48.96,9.45 48.96,8.811 C48.96,8.444 49.011,8.029 49.106,7.559 C49.332,6.471 49.698,5.666 50.217,5.156 C50.701,4.681 51.38,4.442 52.196,4.442 C52.835,4.442 53.334,4.589 53.673,4.921 C54.014,5.253 54.167,5.747 54.167,6.382 C54.167,6.75 54.116,7.169 54.018,7.643 L54.018,7.643 Z M55.979,6.129 C55.977,5.126 55.702,4.416 55.145,3.943 C54.586,3.468 53.715,3.221 52.494,3.221 C50.992,3.224 49.856,3.582 49.012,4.312 C48.169,5.038 47.606,6.149 47.289,7.684 C47.193,8.156 47.145,8.593 47.145,8.989 C47.145,9.977 47.44,10.709 48.025,11.207 C48.614,11.706 49.519,11.98 50.765,11.98 C52.158,11.979 53.269,11.602 54.136,10.851 C54.953,10.14 55.511,9.089 55.796,7.703 C55.916,7.118 55.979,6.593 55.979,6.129 L55.979,6.129 Z" id="Fill-700"></path>
            <path d="M37.427,3.287 L36.348,8.527 C36.22,9.137 36.079,9.576 35.903,9.859 L35.901,9.861 C35.496,10.489 34.771,10.787 33.808,10.784 C33.143,10.787 32.623,10.601 32.271,10.231 L32.271,10.229 L32.267,10.229 C32.059,10.002 31.958,9.717 31.962,9.352 C31.962,9.108 32.001,8.823 32.074,8.468 L33.141,3.287 L31.537,3.287 L30.449,8.567 C30.34,9.104 30.281,9.543 30.281,9.874 C30.281,9.966 30.286,10.052 30.296,10.126 C30.336,10.46 30.47,10.781 30.696,11.086 C31.159,11.673 32.074,11.993 33.46,11.993 C34.739,11.993 35.683,11.718 36.487,11.149 C37.197,10.645 37.703,9.733 37.983,8.374 L39.031,3.287 L37.427,3.287" id="Fill-701"></path>
            <path d="M43.78,7.237 L40.733,7.237 L41.277,4.59 L44.265,4.59 C44.788,4.592 45.172,4.68 45.397,4.937 C45.526,5.081 45.585,5.278 45.585,5.506 C45.585,5.623 45.57,5.75 45.54,5.89 C45.451,6.327 45.284,6.675 44.99,6.906 C44.696,7.138 44.299,7.237 43.78,7.237 L43.78,7.237 Z M47.197,5.603 C47.242,5.396 47.264,5.205 47.264,5.03 C47.262,4.58 47.132,4.243 46.867,3.982 L46.866,3.982 C46.416,3.534 45.522,3.286 44.188,3.287 L39.942,3.287 L38.162,11.926 L39.767,11.926 L40.439,8.656 L40.464,8.539 L42.109,8.539 C42.537,8.539 42.907,8.57 43.209,8.645 C43.511,8.72 43.755,8.847 43.9,9.057 C44.176,9.462 44.231,10.041 44.234,10.594 C44.232,11.142 44.235,11.662 44.228,11.926 L45.996,11.926 C45.996,11.91 46.147,9.771 45.7,8.999 C45.296,8.304 44.713,8.206 44.713,8.206 L45.062,8.105 C46.231,7.726 46.924,6.917 47.197,5.603 L47.197,5.603 Z" id="Fill-702"></path>
            <path d="M40.577,14.209 L40.441,13.414 L39.959,14.209 L40.577,14.209 L40.577,14.209 Z M40.874,14.724 L40.68,14.724 L40.606,14.349 L39.877,14.349 L39.646,14.724 L39.45,14.724 L40.322,13.332 L40.594,13.332 L40.874,14.724 L40.874,14.724 Z" id="Fill-703"></path>
            <path d="M42.624,14.334 C42.591,14.498 42.501,14.612 42.354,14.674 C42.267,14.71 42.178,14.724 41.983,14.724 L41.401,14.724 L41.429,14.583 L42.039,14.583 C42.278,14.583 42.383,14.515 42.418,14.341 C42.441,14.227 42.4,14.143 42.316,14.111 C42.282,14.102 42.209,14.096 42.096,14.096 L41.974,14.096 C41.806,14.096 41.692,14.072 41.632,14.027 C41.548,13.969 41.521,13.874 41.548,13.743 C41.58,13.59 41.682,13.456 41.818,13.388 C41.912,13.347 42.003,13.332 42.179,13.332 L42.759,13.332 L42.729,13.473 L42.149,13.473 C42.011,13.473 41.957,13.48 41.891,13.518 L41.76,13.71 C41.726,13.872 41.808,13.933 42.056,13.933 L42.144,13.933 C42.273,13.933 42.364,13.938 42.419,13.95 L42.555,14.014 C42.628,14.08 42.651,14.197 42.624,14.334" id="Fill-704"></path>
            <path d="M44.351,14.334 C44.317,14.498 44.228,14.612 44.081,14.674 C43.993,14.71 43.904,14.724 43.709,14.724 L43.127,14.724 L43.155,14.583 L43.766,14.583 C44.005,14.583 44.109,14.515 44.146,14.341 C44.168,14.227 44.126,14.143 44.043,14.111 C44.009,14.102 43.937,14.096 43.821,14.096 L43.701,14.096 C43.532,14.096 43.419,14.072 43.357,14.027 C43.275,13.969 43.248,13.874 43.275,13.743 C43.307,13.59 43.408,13.456 43.545,13.388 C43.64,13.347 43.729,13.332 43.904,13.332 L44.484,13.332 L44.456,13.473 L43.877,13.473 C43.738,13.473 43.684,13.48 43.617,13.518 L43.485,13.71 C43.453,13.872 43.535,13.933 43.782,13.933 L43.871,13.933 C44,13.933 44.091,13.938 44.146,13.95 L44.281,14.014 C44.354,14.08 44.379,14.197 44.351,14.334" id="Fill-705"></path>
            <path d="M46.107,14.038 C46.146,13.848 46.145,13.706 46.103,13.62 C46.044,13.506 45.929,13.45 45.753,13.45 C45.41,13.45 45.227,13.622 45.145,14.027 C45.062,14.431 45.173,14.605 45.513,14.605 C45.73,14.605 45.892,14.529 45.991,14.37 C46.033,14.304 46.079,14.175 46.107,14.038 L46.107,14.038 Z M46.313,14.032 C46.259,14.298 46.161,14.474 45.994,14.593 C45.849,14.694 45.674,14.745 45.469,14.745 C45.22,14.745 45.053,14.674 44.975,14.534 C44.91,14.431 44.898,14.23 44.939,14.032 C44.982,13.817 45.084,13.62 45.213,13.506 C45.36,13.375 45.549,13.311 45.783,13.311 C46.246,13.311 46.413,13.541 46.313,14.032 L46.313,14.032 Z" id="Fill-706"></path>
            <path d="M47.827,14.724 L47.396,14.724 C47.125,14.724 46.995,14.683 46.907,14.569 C46.812,14.442 46.787,14.265 46.833,14.038 C46.86,13.906 46.907,13.783 46.976,13.674 C47.044,13.565 47.124,13.48 47.213,13.427 C47.319,13.365 47.463,13.332 47.666,13.332 L48.112,13.332 L48.083,13.473 L47.651,13.473 C47.541,13.473 47.458,13.48 47.404,13.498 L47.249,13.595 C47.156,13.692 47.073,13.862 47.036,14.044 C46.999,14.225 47.019,14.379 47.087,14.472 C47.149,14.556 47.24,14.583 47.444,14.583 L47.856,14.583 L47.827,14.724" id="Fill-707"></path>
            <polyline id="Fill-708" points="48.624 14.724 48.434 14.724 48.718 13.332 48.909 13.332 48.624 14.724"></polyline>
            <path d="M50.303,14.209 L50.167,13.414 L49.684,14.209 L50.303,14.209 L50.303,14.209 Z M50.6,14.724 L50.404,14.724 L50.331,14.349 L49.603,14.349 L49.37,14.724 L49.175,14.724 L50.047,13.332 L50.319,13.332 L50.6,14.724 L50.6,14.724 Z" id="Fill-709"></path>
            <polyline id="Fill-710" points="52.458 13.473 51.954 13.473 51.699 14.724 51.508 14.724 51.763 13.473 51.256 13.473 51.285 13.332 52.487 13.332 52.458 13.473"></polyline>
            <polyline id="Fill-711" points="52.935 14.724 52.744 14.724 53.027 13.332 53.218 13.332 52.935 14.724"></polyline>
            <path d="M54.848,14.038 C54.887,13.848 54.885,13.706 54.843,13.62 C54.784,13.506 54.669,13.45 54.493,13.45 C54.151,13.45 53.967,13.622 53.885,14.027 C53.802,14.431 53.914,14.605 54.253,14.605 C54.471,14.605 54.632,14.529 54.731,14.37 C54.773,14.304 54.819,14.175 54.848,14.038 L54.848,14.038 Z M55.054,14.032 C54.999,14.298 54.901,14.474 54.734,14.593 C54.589,14.694 54.414,14.745 54.209,14.745 C53.96,14.745 53.794,14.674 53.715,14.534 C53.651,14.431 53.639,14.23 53.68,14.032 C53.724,13.817 53.824,13.62 53.953,13.506 C54.101,13.375 54.289,13.311 54.523,13.311 C54.987,13.311 55.153,13.541 55.054,14.032 L55.054,14.032 Z" id="Fill-712"></path>
            <polyline id="Fill-713" points="56.727 14.724 56.491 14.724 55.943 13.528 55.699 14.724 55.518 14.724 55.801 13.332 56.044 13.332 56.583 14.533 56.827 13.332 57.011 13.332 56.727 14.724"></polyline>
            <path d="M59.518,14.038 C59.556,13.848 59.555,13.706 59.513,13.62 C59.455,13.506 59.339,13.45 59.163,13.45 C58.821,13.45 58.637,13.622 58.554,14.027 C58.472,14.431 58.583,14.605 58.923,14.605 C59.141,14.605 59.301,14.529 59.401,14.37 C59.443,14.304 59.489,14.175 59.518,14.038 L59.518,14.038 Z M59.723,14.032 C59.668,14.298 59.571,14.474 59.404,14.593 C59.258,14.694 59.083,14.745 58.88,14.745 C58.629,14.745 58.464,14.674 58.385,14.534 C58.32,14.431 58.309,14.23 58.349,14.032 C58.393,13.817 58.494,13.62 58.623,13.506 C58.771,13.375 58.959,13.311 59.194,13.311 C59.657,13.311 59.822,13.541 59.723,14.032 L59.723,14.032 Z" id="Fill-714"></path>
            <path d="M61.345,14.093 L60.488,14.093 L60.36,14.724 L60.17,14.724 L60.342,13.881 C60.373,13.724 60.396,13.658 60.449,13.577 C60.525,13.473 60.628,13.402 60.754,13.365 C60.83,13.343 60.942,13.332 61.09,13.332 L61.5,13.332 L61.471,13.473 L61.042,13.473 C60.731,13.473 60.595,13.575 60.538,13.851 L60.518,13.954 L61.373,13.954 L61.345,14.093" id="Fill-715"></path>
            <path d="M63.825,13.758 C63.846,13.659 63.832,13.583 63.783,13.53 C63.75,13.491 63.672,13.473 63.552,13.473 L63.154,13.473 L63.034,14.064 L63.44,14.064 C63.557,14.064 63.646,14.038 63.706,13.989 C63.758,13.945 63.806,13.855 63.825,13.758 L63.825,13.758 Z M64.03,13.763 C63.999,13.914 63.917,14.048 63.804,14.123 C63.719,14.182 63.604,14.203 63.396,14.203 L63.006,14.203 L62.899,14.724 L62.708,14.724 L62.992,13.332 L63.618,13.332 C63.813,13.332 63.907,13.359 63.979,13.445 C64.041,13.52 64.059,13.624 64.03,13.763 L64.03,13.763 Z" id="Fill-716"></path>
            <path d="M65.643,14.038 C65.681,13.848 65.679,13.706 65.637,13.62 C65.579,13.506 65.464,13.45 65.287,13.45 C64.945,13.45 64.761,13.622 64.678,14.027 C64.596,14.431 64.707,14.605 65.048,14.605 C65.265,14.605 65.425,14.529 65.525,14.37 C65.568,14.304 65.614,14.175 65.643,14.038 L65.643,14.038 Z M65.847,14.032 C65.793,14.298 65.695,14.474 65.528,14.593 C65.383,14.694 65.207,14.745 65.004,14.745 C64.753,14.745 64.588,14.674 64.509,14.534 C64.444,14.431 64.433,14.23 64.474,14.032 C64.518,13.817 64.618,13.62 64.747,13.506 C64.895,13.375 65.084,13.311 65.318,13.311 C65.781,13.311 65.946,13.541 65.847,14.032 L65.847,14.032 Z" id="Fill-717"></path>
            <path d="M67.183,14.724 L66.892,14.724 C66.674,14.724 66.53,14.687 66.459,14.615 C66.381,14.534 66.363,14.386 66.406,14.173 L66.578,13.332 L66.77,13.332 L66.598,14.173 C66.559,14.363 66.58,14.485 66.658,14.54 C66.698,14.569 66.785,14.583 66.92,14.583 L67.211,14.583 L67.183,14.724" id="Fill-718"></path>
            <polyline id="Fill-719" points="69.202 13.332 68.466 14.16 68.351 14.724 68.159 14.724 68.27 14.16 67.875 13.332 68.094 13.332 68.406 14.027 68.985 13.332 69.202 13.332"></polyline>
            <polyline id="Fill-720" points="71.04 14.724 70.858 14.724 71.104 13.518 71.067 13.508 70.363 14.724 70.165 14.724 69.943 13.508 69.9 13.518 69.653 14.724 69.472 14.724 69.755 13.332 70.061 13.332 70.316 14.54 71.02 13.332 71.325 13.332 71.04 14.724"></polyline>
            <path d="M72.731,14.724 L72.273,14.724 C72.144,14.724 72.046,14.71 71.979,14.683 L71.818,14.533 C71.75,14.405 71.737,14.265 71.78,14.057 C71.838,13.772 71.963,13.567 72.153,13.44 C72.272,13.365 72.405,13.332 72.625,13.332 L73.017,13.332 L72.986,13.473 L72.583,13.473 C72.468,13.473 72.379,13.485 72.319,13.508 L72.147,13.651 C72.081,13.73 72.047,13.801 72.016,13.954 L72.889,13.954 L72.861,14.093 L71.985,14.093 C71.96,14.218 71.963,14.322 71.996,14.405 C72.047,14.533 72.144,14.583 72.344,14.583 L72.761,14.583 L72.731,14.724" id="Fill-721"></path>
            <path d="M74.553,13.724 C74.576,13.614 74.553,13.541 74.487,13.504 C74.455,13.48 74.375,13.473 74.249,13.473 L73.811,13.473 L73.707,13.978 L74.146,13.978 C74.289,13.978 74.371,13.96 74.423,13.926 L74.553,13.724 L74.553,13.724 Z M74.761,13.708 C74.738,13.821 74.675,13.926 74.584,13.986 L74.497,14.035 L74.337,14.075 C74.45,14.132 74.522,14.19 74.552,14.25 C74.581,14.309 74.585,14.402 74.559,14.529 C74.533,14.655 74.533,14.687 74.543,14.724 L74.356,14.724 L74.352,14.681 L74.368,14.538 C74.385,14.379 74.363,14.27 74.299,14.209 C74.236,14.147 74.116,14.116 73.933,14.116 L73.679,14.116 L73.556,14.724 L73.364,14.724 L73.647,13.332 L74.294,13.332 C74.484,13.332 74.612,13.359 74.679,13.411 C74.759,13.48 74.787,13.58 74.761,13.708 L74.761,13.708 Z" id="Fill-722"></path>
            <path d="M77.205,14.093 L76.351,14.093 L76.221,14.724 L76.03,14.724 L76.202,13.881 C76.234,13.724 76.257,13.658 76.31,13.577 C76.386,13.473 76.488,13.402 76.615,13.365 C76.691,13.343 76.803,13.332 76.95,13.332 L77.36,13.332 L77.332,13.473 L76.902,13.473 C76.593,13.473 76.456,13.575 76.399,13.851 L76.378,13.954 L77.233,13.954 L77.205,14.093" id="Fill-723"></path>
            <path d="M78.683,14.209 L78.547,13.414 L78.064,14.209 L78.683,14.209 L78.683,14.209 Z M78.979,14.724 L78.785,14.724 L78.712,14.349 L77.982,14.349 L77.751,14.724 L77.556,14.724 L78.428,13.332 L78.7,13.332 L78.979,14.724 L78.979,14.724 Z" id="Fill-724"></path>
            <path d="M80.583,14.724 L80.151,14.724 C79.881,14.724 79.751,14.683 79.663,14.569 C79.567,14.442 79.543,14.265 79.589,14.038 C79.615,13.906 79.663,13.783 79.731,13.674 C79.8,13.565 79.88,13.48 79.969,13.427 C80.075,13.365 80.218,13.332 80.422,13.332 L80.867,13.332 L80.838,13.473 L80.407,13.473 C80.297,13.473 80.214,13.48 80.159,13.498 L80.005,13.595 C79.912,13.692 79.829,13.862 79.791,14.044 C79.755,14.225 79.774,14.379 79.843,14.472 C79.904,14.556 79.995,14.583 80.199,14.583 L80.612,14.583 L80.583,14.724" id="Fill-725"></path>
            <polyline id="Fill-726" points="82.496 13.473 81.991 13.473 81.736 14.724 81.545 14.724 81.8 13.473 81.293 13.473 81.321 13.332 82.524 13.332 82.496 13.473"></polyline>
            <path d="M84.007,14.038 C84.046,13.848 84.044,13.706 84.002,13.62 C83.944,13.506 83.828,13.45 83.652,13.45 C83.311,13.45 83.126,13.622 83.043,14.027 C82.961,14.431 83.072,14.605 83.413,14.605 C83.63,14.605 83.79,14.529 83.891,14.37 C83.933,14.304 83.979,14.175 84.007,14.038 L84.007,14.038 Z M84.212,14.032 C84.158,14.298 84.061,14.474 83.894,14.593 C83.748,14.694 83.572,14.745 83.369,14.745 C83.118,14.745 82.953,14.674 82.874,14.534 C82.81,14.431 82.798,14.23 82.839,14.032 C82.883,13.817 82.983,13.62 83.112,13.506 C83.26,13.375 83.449,13.311 83.684,13.311 C84.146,13.311 84.312,13.541 84.212,14.032 L84.212,14.032 Z" id="Fill-727"></path>
            <path d="M85.866,13.724 C85.889,13.614 85.866,13.541 85.799,13.504 C85.769,13.48 85.687,13.473 85.562,13.473 L85.122,13.473 L85.02,13.978 L85.458,13.978 C85.601,13.978 85.684,13.96 85.734,13.926 L85.866,13.724 L85.866,13.724 Z M86.072,13.708 C86.05,13.821 85.986,13.926 85.896,13.986 L85.809,14.035 L85.649,14.075 C85.763,14.132 85.834,14.19 85.863,14.25 C85.894,14.309 85.896,14.402 85.87,14.529 C85.845,14.655 85.845,14.687 85.854,14.724 L85.668,14.724 L85.664,14.681 L85.679,14.538 C85.697,14.379 85.676,14.27 85.61,14.209 C85.549,14.147 85.428,14.116 85.245,14.116 L84.99,14.116 L84.867,14.724 L84.676,14.724 L84.96,13.332 L85.605,13.332 C85.796,13.332 85.926,13.359 85.99,13.411 C86.071,13.48 86.099,13.58 86.072,13.708 L86.072,13.708 Z" id="Fill-728"></path>
            <polyline id="Fill-729" points="86.673 14.724 86.481 14.724 86.766 13.332 86.957 13.332 86.673 14.724"></polyline>
            <path d="M88.365,14.724 L87.906,14.724 C87.777,14.724 87.679,14.71 87.611,14.683 L87.451,14.533 C87.383,14.405 87.369,14.265 87.412,14.057 C87.471,13.772 87.595,13.567 87.786,13.44 C87.905,13.365 88.038,13.332 88.258,13.332 L88.648,13.332 L88.62,13.473 L88.217,13.473 C88.1,13.473 88.013,13.485 87.952,13.508 L87.78,13.651 C87.715,13.73 87.68,13.801 87.648,13.954 L88.521,13.954 L88.493,14.093 L87.618,14.093 C87.593,14.218 87.595,14.322 87.629,14.405 C87.68,14.533 87.776,14.583 87.977,14.583 L88.394,14.583 L88.365,14.724" id="Fill-730"></path>
            <path d="M90.193,14.334 C90.161,14.498 90.071,14.612 89.925,14.674 C89.836,14.71 89.747,14.724 89.553,14.724 L88.971,14.724 L88.999,14.583 L89.609,14.583 C89.849,14.583 89.952,14.515 89.987,14.341 C90.011,14.227 89.97,14.143 89.886,14.111 C89.853,14.102 89.778,14.096 89.665,14.096 L89.544,14.096 C89.375,14.096 89.262,14.072 89.201,14.027 C89.118,13.969 89.092,13.874 89.118,13.743 C89.149,13.59 89.252,13.456 89.388,13.388 C89.482,13.347 89.573,13.332 89.748,13.332 L90.328,13.332 L90.299,13.473 L89.719,13.473 C89.581,13.473 89.527,13.48 89.461,13.518 L89.329,13.71 C89.296,13.872 89.378,13.933 89.626,13.933 L89.714,13.933 C89.843,13.933 89.934,13.938 89.989,13.95 L90.125,14.014 C90.197,14.08 90.222,14.197 90.193,14.334" id="Fill-731"></path>
            <path d="M5.138,10.776 C3.337,10.762 1.77,10.714 0.705,10.673 C0.857,10.857 1.039,11.029 1.245,11.188 C2.325,11.158 3.641,11.13 5.07,11.127 L5.138,10.776 L5.138,10.776 Z M4.935,11.821 L5,11.474 C3.743,11.472 2.574,11.45 1.578,11.424 C1.815,11.575 2.076,11.712 2.359,11.837 C3.029,11.825 3.741,11.821 4.482,11.821 L4.935,11.821 L4.935,11.821 Z M8.181,10.448 C9.068,10.463 9.884,10.483 10.584,10.503 L10.606,10.254 L10.648,10.036 C9.944,10.058 9.137,10.074 8.25,10.082 L8.181,10.448 L8.181,10.448 Z M5.406,9.373 C2.807,9.325 0.961,9.221 0.961,9.221 C0.961,9.221 2.836,9.117 5.464,9.071 L5.543,8.664 C3.327,8.615 1.813,8.528 1.813,8.528 C1.813,8.528 3.352,8.443 5.596,8.391 L5.68,7.952 C3.859,7.903 2.665,7.834 2.665,7.834 C2.665,7.834 3.882,7.767 5.727,7.716 L5.817,7.238 C4.409,7.193 3.52,7.141 3.52,7.141 C3.52,7.141 4.426,7.091 5.854,7.044 L5.956,6.518 C4.966,6.483 4.372,6.449 4.372,6.449 C4.372,6.449 4.979,6.413 5.984,6.375 L6.095,5.795 C5.541,5.773 5.227,5.756 5.227,5.756 C5.227,5.756 5.551,5.738 6.111,5.712 L6.412,4.15 C6.47,3.854 6.613,3.599 6.809,3.4 C2.549,4.798 -0.313,7.358 0.161,9.589 C0.187,9.699 0.217,9.803 0.255,9.907 C0.798,9.879 2.784,9.785 5.333,9.752 L5.406,9.373 L5.406,9.373 Z M4.869,12.166 C4.739,12.166 4.612,12.169 4.482,12.169 C4.065,12.169 3.661,12.166 3.267,12.162 C3.739,12.302 4.255,12.414 4.806,12.491 L4.869,12.166 L4.869,12.166 Z M10.842,11.365 C10.104,11.394 9.126,11.427 7.988,11.45 L7.908,11.863 C10.002,11.914 11.416,11.994 11.416,11.994 C11.416,11.994 9.98,12.075 7.858,12.125 L7.765,12.609 C8.779,12.56 9.847,12.424 10.941,12.19 C11.242,12.126 11.539,12.054 11.834,11.98 L11.764,11.97 C11.372,11.893 11.052,11.668 10.842,11.365 L10.842,11.365 Z M19.725,5.423 C19.699,5.305 19.661,5.191 19.618,5.079 C18.881,5.116 16.955,5.199 14.559,5.229 L14.486,5.603 C17.17,5.648 19.094,5.756 19.094,5.756 C19.094,5.756 17.141,5.864 14.427,5.908 L14.349,6.308 C16.649,6.36 18.24,6.449 18.24,6.449 C18.24,6.449 16.625,6.539 14.295,6.59 L14.212,7.02 C16.121,7.07 17.387,7.141 17.387,7.141 C17.387,7.141 16.101,7.215 14.164,7.266 L14.074,7.735 C15.578,7.781 16.534,7.834 16.534,7.834 C16.534,7.834 15.561,7.89 14.034,7.938 L13.936,8.452 C15.019,8.491 15.682,8.528 15.682,8.528 C15.682,8.528 15.005,8.566 13.906,8.606 L13.796,9.173 C14.445,9.2 14.828,9.221 14.828,9.221 C14.828,9.221 14.44,9.242 13.777,9.272 L13.479,10.813 C13.412,11.149 13.237,11.433 12.997,11.641 C17.302,10.247 20.201,7.668 19.725,5.423 L19.725,5.423 Z M15.239,1.904 C15.31,1.63 15.369,1.261 15.393,1.05 L15.367,1.047 C15.183,1.494 14.52,1.742 13.791,1.602 C13.113,1.471 12.611,1.053 12.535,0.605 L12.534,0.605 L12.51,0.601 C12.461,0.771 12.394,1.12 12.354,1.346 C12.262,1.875 12.814,2.428 13.612,2.581 C14.407,2.739 15.106,2.427 15.239,1.904 L15.239,1.904 Z M9.298,4.271 C10.012,4.247 10.85,4.225 11.773,4.212 L11.85,3.82 C10.764,3.796 9.829,3.766 9.131,3.737 C9.22,3.902 9.276,4.08 9.298,4.271 L9.298,4.271 Z M8.314,9.747 C9.195,9.757 9.999,9.773 10.695,9.792 L10.778,9.364 C10.039,9.38 9.234,9.391 8.383,9.395 L8.314,9.747 L8.314,9.747 Z M6.032,13.754 C5.362,13.625 4.864,13.213 4.78,12.771 L4.751,12.765 C4.702,12.938 4.635,13.277 4.597,13.498 C4.505,14.029 5.057,14.582 5.854,14.735 C6.651,14.889 7.348,14.579 7.482,14.056 C7.549,13.792 7.608,13.442 7.633,13.229 L7.605,13.21 C7.413,13.651 6.755,13.896 6.032,13.754 L6.032,13.754 Z M8.176,3.004 C8.553,3.089 8.863,3.316 9.063,3.616 C9.78,3.589 10.762,3.556 11.905,3.532 L11.985,3.109 C9.981,3.057 8.638,2.984 8.638,2.984 C8.638,2.984 10.002,2.906 12.036,2.855 L12.123,2.404 C11.109,2.455 10.038,2.591 8.945,2.823 C8.686,2.879 8.43,2.941 8.176,3.004 L8.176,3.004 Z M5.271,10.076 C2.761,10.043 0.808,9.951 0.263,9.923 C0.345,10.144 0.461,10.35 0.605,10.544 C1.683,10.503 3.32,10.45 5.202,10.438 L5.271,10.076 L5.271,10.076 Z M8.449,9.047 C9.298,9.052 10.1,9.064 10.831,9.08 L10.909,8.683 C10.23,8.695 9.503,8.701 8.748,8.701 L8.517,8.7 L8.449,9.047 L8.449,9.047 Z M15.025,2.81 C15.205,2.809 15.387,2.809 15.571,2.809 C15.883,2.809 16.188,2.81 16.487,2.812 C16.051,2.689 15.581,2.591 15.081,2.521 L15.025,2.81 L15.025,2.81 Z M14.622,4.898 C16.975,4.926 18.863,5.009 19.604,5.045 C19.519,4.831 19.403,4.629 19.26,4.437 C18.151,4.481 16.531,4.53 14.69,4.54 L14.622,4.898 L14.622,4.898 Z M14.959,3.155 L14.892,3.502 C16.115,3.503 17.256,3.523 18.242,3.547 C18.002,3.398 17.733,3.265 17.443,3.143 C16.847,3.153 16.221,3.157 15.571,3.157 C15.364,3.157 15.159,3.155 14.959,3.155 L14.959,3.155 Z M9.112,5.615 C9.847,5.6 10.653,5.586 11.51,5.582 L11.577,5.23 C10.697,5.218 9.896,5.2 9.195,5.181 L9.112,5.615 L9.112,5.615 Z M14.758,4.198 C16.507,4.21 18.052,4.255 19.141,4.295 C18.986,4.116 18.806,3.95 18.602,3.795 C17.521,3.825 16.223,3.848 14.824,3.848 L14.758,4.198 L14.758,4.198 Z M10.597,10.709 C9.88,10.734 9.037,10.755 8.12,10.767 L8.043,11.155 C9.117,11.174 10.051,11.205 10.767,11.234 C10.679,11.073 10.62,10.896 10.597,10.709 L10.597,10.709 Z M8.717,7.663 C9.008,7.663 9.3,7.661 9.601,7.661 C10.118,7.661 10.62,7.663 11.106,7.67 L11.175,7.314 C10.937,7.315 10.697,7.315 10.453,7.315 C9.877,7.315 9.32,7.312 8.785,7.306 L8.717,7.663 L8.717,7.663 Z M11.712,4.528 C10.816,4.51 10.002,4.49 9.308,4.469 L9.285,4.708 L9.241,4.941 C9.948,4.921 10.758,4.906 11.642,4.895 L11.712,4.528 L11.712,4.528 Z M8.584,8.355 L8.748,8.355 C9.526,8.355 10.271,8.362 10.971,8.373 L11.041,8 C10.577,8.006 10.096,8.008 9.601,8.008 C9.277,8.008 8.963,8.006 8.65,8.006 L8.584,8.355 L8.584,8.355 Z M8.979,6.296 C9.708,6.281 10.488,6.275 11.307,6.275 L11.375,6.275 L11.442,5.928 C10.591,5.923 9.789,5.908 9.056,5.894 L8.979,6.296 L8.979,6.296 Z M8.849,6.979 C9.363,6.971 9.899,6.969 10.453,6.969 C10.721,6.969 10.982,6.97 11.241,6.97 L11.31,6.622 L11.307,6.622 C10.466,6.622 9.667,6.615 8.921,6.601 L8.849,6.979 L8.849,6.979 Z" id="Fill-732"></path>
        </g>
    </g>
</svg>